<?xml version="1.0" standalone="no"?>
<!DOCTYPE svg PUBLIC "-//W3C//DTD SVG 20010904//EN"
 "http://www.w3.org/TR/2001/REC-SVG-20010904/DTD/svg10.dtd">
<svg version="1.0" xmlns="http://www.w3.org/2000/svg"
 width="16.000000pt" height="16.000000pt" viewBox="0 0 16.000000 16.000000"
 preserveAspectRatio="xMidYMid meet">

<g transform="translate(0.000000,16.000000) scale(0.100000,-0.100000)"
fill="#000000" stroke="none">
<path d="M5 80 l0 -75 75 0 75 0 0 75 0 75 -75 0 -75 0 0 -75z m130 0 l0 -55
-55 0 -55 0 -3 44 c-5 67 0 72 60 69 l53 -3 0 -55z"/>
<path d="M40 115 c0 -8 7 -15 16 -15 13 0 15 -7 11 -35 -5 -30 -3 -35 13 -35
16 0 18 5 13 35 -4 28 -2 35 11 35 9 0 16 7 16 15 0 11 -11 15 -40 15 -29 0
-40 -4 -40 -15z m58 -6 c-12 -7 -24 -7 -35 0 -15 9 -12 10 17 10 29 0 32 -1
18 -10z"/>
</g>
</svg>
